v -0.5773503 -0.5773503 -0.5773503
v 0.5773503 -0.5773503 -0.5773503
v 0.5773503 0.5773503 -0.5773503
v -0.5773503 0.5773503 -0.5773503
v -0.5773503 0.5773503 0.5773503
v 0.5773503 0.5773503 0.5773503
v 0.5773503 -0.5773503 0.5773503
v -0.5773503 -0.5773503 0.5773503

vn -0.3333333 -0.6666666 -0.6666666
vn 0.8164966 -0.4082483 -0.4082483
vn 0.4082483 0.4082483 -0.8164966
vn -0.6666666 0.6666666 -0.3333333
vn -0.4082483 0.4082483 0.8164966
vn 0.6666666 0.6666666 0.3333333
vn 0.3333333 -0.6666666 0.6666666
vn -0.8164966 -0.4082483 0.4082483

f 1//1 4//4 3//3
f 1//1 3//3 2//2
f 8//8 5//5 4//4
f 8//8 4//4 1//1
f 2//2 3//3 6//6
f 2//2 6//6 7//7
f 1//1 7//7 8//8
f 1//1 2//2 7//7
f 4//4 5//5 6//6
f 4//4 6//6 3//3
f 7//7 6//6 5//5
f 7//7 5//5 8//8
