v -0.7071068 -0.7071068 0
v -0.7071068 -0.2357022 0
v -0.7071068 0.2357022 0
v -0.7071068 0.7071068 0
v -0.2357022 -0.7071068 0
v -0.2357022 -0.2357022 0
v -0.2357022 0.2357022 0
v -0.2357022 0.7071068 0
v 0.2357022 -0.7071068 0
v 0.2357022 -0.2357022 0
v 0.2357022 0.2357022 0
v 0.2357022 0.7071068 0
v 0.7071068 -0.7071068 0
v 0.7071068 -0.2357022 0
v 0.7071068 0.2357022 0
v 0.7071068 0.7071068 0

vn 0 0 -1
vn 0 0 -1
vn 0 0 -1
vn 0 0 -1
vn 0 0 -1
vn 0 0 -1
vn 0 0 -1
vn 0 0 -1
vn 0 0 -1
vn 0 0 -1
vn 0 0 -1
vn 0 0 -1
vn 0 0 -1
vn 0 0 -1
vn 0 0 -1
vn 0 0 -1

f 1//1 2//2 6//6
f 1//1 6//6 5//5
f 2//2 3//3 7//7
f 2//2 7//7 6//6
f 3//3 4//4 8//8
f 3//3 8//8 7//7
f 5//5 6//6 10//10
f 5//5 10//10 9//9
f 6//6 7//7 11//11
f 6//6 11//11 10//10
f 7//7 8//8 12//12
f 7//7 12//12 11//11
f 9//9 10//10 14//14
f 9//9 14//14 13//13
f 10//10 11//11 15//15
f 10//10 15//15 14//14
f 11//11 12//12 16//16
f 11//11 16//16 15//15
